<mxfile host="65bd71144e">
    <diagram id="FON95eWTpFxyY4DjwPbL" name="Page-1">
        <mxGraphModel dx="6225" dy="3080" grid="1" gridSize="10" guides="1" tooltips="1" connect="1" arrows="1" fold="1" page="1" pageScale="1" pageWidth="850" pageHeight="1100" math="0" shadow="0">
            <root>
                <mxCell id="0"/>
                <mxCell id="1" parent="0"/>
                <mxCell id="4" value="" style="edgeStyle=none;html=1;" edge="1" parent="1" source="2" target="3">
                    <mxGeometry relative="1" as="geometry"/>
                </mxCell>
                <mxCell id="2" value="INICIO" style="ellipse;whiteSpace=wrap;html=1;" vertex="1" parent="1">
                    <mxGeometry x="338" y="-720" width="175" height="110" as="geometry"/>
                </mxCell>
                <mxCell id="7" style="edgeStyle=none;html=1;entryX=0.5;entryY=0;entryDx=0;entryDy=0;" edge="1" parent="1" source="3" target="5">
                    <mxGeometry relative="1" as="geometry"/>
                </mxCell>
                <mxCell id="3" value="Menu Principal&lt;br&gt;Menu = Dias&lt;br&gt;Menu = Materias" style="shape=parallelogram;perimeter=parallelogramPerimeter;whiteSpace=wrap;html=1;fixedSize=1;" vertex="1" parent="1">
                    <mxGeometry x="338" y="-530" width="175" height="90" as="geometry"/>
                </mxCell>
                <mxCell id="9" value="" style="edgeStyle=none;html=1;" edge="1" parent="1" source="5" target="8">
                    <mxGeometry relative="1" as="geometry">
                        <Array as="points"/>
                    </mxGeometry>
                </mxCell>
                <mxCell id="5" value="MENU PRINCIPAL.&lt;br&gt;&lt;br&gt;MENU &quot;a&quot; = Dias de la semana&lt;br&gt;MENU &quot;m&quot; = Materias" style="whiteSpace=wrap;html=1;aspect=fixed;" vertex="1" parent="1">
                    <mxGeometry x="358" y="-360" width="135" height="135" as="geometry"/>
                </mxCell>
                <mxCell id="11" value="" style="edgeStyle=none;html=1;" edge="1" parent="1" source="8" target="10">
                    <mxGeometry relative="1" as="geometry">
                        <Array as="points">
                            <mxPoint x="920" y="110"/>
                        </Array>
                    </mxGeometry>
                </mxCell>
                <mxCell id="47" value="" style="edgeStyle=none;html=1;" edge="1" parent="1" source="8" target="46">
                    <mxGeometry relative="1" as="geometry">
                        <Array as="points">
                            <mxPoint x="-890" y="110"/>
                        </Array>
                    </mxGeometry>
                </mxCell>
                <mxCell id="8" value="Menu = 1" style="rhombus;whiteSpace=wrap;html=1;" vertex="1" parent="1">
                    <mxGeometry x="385" y="70" width="80" height="80" as="geometry"/>
                </mxCell>
                <mxCell id="15" value="" style="edgeStyle=none;html=1;" edge="1" parent="1" source="10" target="14">
                    <mxGeometry relative="1" as="geometry">
                        <Array as="points">
                            <mxPoint x="1020" y="545"/>
                        </Array>
                    </mxGeometry>
                </mxCell>
                <mxCell id="10" value="Menu = 2" style="rhombus;whiteSpace=wrap;html=1;" vertex="1" parent="1">
                    <mxGeometry x="880" y="505" width="80" height="80" as="geometry"/>
                </mxCell>
                <mxCell id="17" value="" style="edgeStyle=none;html=1;" edge="1" parent="1" source="14" target="16">
                    <mxGeometry relative="1" as="geometry">
                        <Array as="points">
                            <mxPoint x="1350" y="830"/>
                        </Array>
                    </mxGeometry>
                </mxCell>
                <mxCell id="14" value="Menu = 3" style="rhombus;whiteSpace=wrap;html=1;" vertex="1" parent="1">
                    <mxGeometry x="1190" y="790" width="80" height="80" as="geometry"/>
                </mxCell>
                <mxCell id="19" value="" style="edgeStyle=none;html=1;" edge="1" parent="1" source="16" target="18">
                    <mxGeometry relative="1" as="geometry">
                        <Array as="points">
                            <mxPoint x="1470" y="910"/>
                        </Array>
                    </mxGeometry>
                </mxCell>
                <mxCell id="16" value="Menu = 4" style="rhombus;whiteSpace=wrap;html=1;" vertex="1" parent="1">
                    <mxGeometry x="1310" y="870" width="80" height="80" as="geometry"/>
                </mxCell>
                <mxCell id="18" value="Menu = 5" style="rhombus;whiteSpace=wrap;html=1;" vertex="1" parent="1">
                    <mxGeometry x="1430" y="950" width="80" height="80" as="geometry"/>
                </mxCell>
                <mxCell id="24" value="NO" style="text;html=1;strokeColor=none;fillColor=none;align=center;verticalAlign=middle;whiteSpace=wrap;rounded=0;" vertex="1" parent="1">
                    <mxGeometry x="465" y="80" width="60" height="30" as="geometry"/>
                </mxCell>
                <mxCell id="25" value="SI" style="text;html=1;strokeColor=none;fillColor=none;align=center;verticalAlign=middle;whiteSpace=wrap;rounded=0;" vertex="1" parent="1">
                    <mxGeometry x="330" y="80" width="60" height="30" as="geometry"/>
                </mxCell>
                <mxCell id="32" value="Text" style="text;html=1;strokeColor=none;fillColor=none;align=center;verticalAlign=middle;whiteSpace=wrap;rounded=0;" vertex="1" parent="1">
                    <mxGeometry x="1150" y="720" width="60" height="30" as="geometry"/>
                </mxCell>
                <mxCell id="33" value="Text" style="text;html=1;strokeColor=none;fillColor=none;align=center;verticalAlign=middle;whiteSpace=wrap;rounded=0;" vertex="1" parent="1">
                    <mxGeometry x="1270" y="800" width="60" height="30" as="geometry"/>
                </mxCell>
                <mxCell id="34" value="Text" style="text;html=1;strokeColor=none;fillColor=none;align=center;verticalAlign=middle;whiteSpace=wrap;rounded=0;" vertex="1" parent="1">
                    <mxGeometry x="1390" y="880" width="60" height="30" as="geometry"/>
                </mxCell>
                <mxCell id="36" value="Text" style="text;html=1;strokeColor=none;fillColor=none;align=center;verticalAlign=middle;whiteSpace=wrap;rounded=0;" vertex="1" parent="1">
                    <mxGeometry x="1130" y="800" width="60" height="30" as="geometry"/>
                </mxCell>
                <mxCell id="40" value="Text" style="text;html=1;strokeColor=none;fillColor=none;align=center;verticalAlign=middle;whiteSpace=wrap;rounded=0;" vertex="1" parent="1">
                    <mxGeometry x="1240" y="880" width="60" height="30" as="geometry"/>
                </mxCell>
                <mxCell id="41" value="Text" style="text;html=1;strokeColor=none;fillColor=none;align=center;verticalAlign=middle;whiteSpace=wrap;rounded=0;" vertex="1" parent="1">
                    <mxGeometry x="1370" y="960" width="60" height="30" as="geometry"/>
                </mxCell>
                <mxCell id="51" value="" style="edgeStyle=none;html=1;" edge="1" parent="1" source="46" target="50">
                    <mxGeometry relative="1" as="geometry">
                        <Array as="points">
                            <mxPoint x="-1090" y="310"/>
                        </Array>
                    </mxGeometry>
                </mxCell>
                <mxCell id="63" value="" style="edgeStyle=none;html=1;" edge="1" parent="1" source="46" target="62">
                    <mxGeometry relative="1" as="geometry">
                        <Array as="points">
                            <mxPoint x="-530" y="310"/>
                        </Array>
                    </mxGeometry>
                </mxCell>
                <mxCell id="46" value="Menu Dias &lt;br&gt;= 1" style="rhombus;whiteSpace=wrap;html=1;" vertex="1" parent="1">
                    <mxGeometry x="-930" y="270" width="80" height="80" as="geometry"/>
                </mxCell>
                <mxCell id="53" value="" style="edgeStyle=none;html=1;" edge="1" parent="1" source="50" target="52">
                    <mxGeometry relative="1" as="geometry">
                        <Array as="points">
                            <mxPoint x="-1505" y="460"/>
                        </Array>
                    </mxGeometry>
                </mxCell>
                <mxCell id="70" style="edgeStyle=none;html=1;entryX=0.5;entryY=0;entryDx=0;entryDy=0;" edge="1" parent="1" source="50" target="64">
                    <mxGeometry relative="1" as="geometry">
                        <Array as="points">
                            <mxPoint x="-940" y="460"/>
                        </Array>
                    </mxGeometry>
                </mxCell>
                <mxCell id="50" value="Menu Dias&lt;br&gt;&amp;nbsp;= 2" style="rhombus;whiteSpace=wrap;html=1;" vertex="1" parent="1">
                    <mxGeometry x="-1130" y="420" width="80" height="80" as="geometry"/>
                </mxCell>
                <mxCell id="55" value="" style="edgeStyle=none;html=1;" edge="1" parent="1" source="52" target="54">
                    <mxGeometry relative="1" as="geometry">
                        <Array as="points">
                            <mxPoint x="-2000" y="610"/>
                        </Array>
                    </mxGeometry>
                </mxCell>
                <mxCell id="71" style="edgeStyle=none;html=1;entryX=0.5;entryY=0;entryDx=0;entryDy=0;" edge="1" parent="1" source="52" target="66">
                    <mxGeometry relative="1" as="geometry">
                        <Array as="points">
                            <mxPoint x="-1335" y="610"/>
                        </Array>
                    </mxGeometry>
                </mxCell>
                <mxCell id="52" value="Menu Dias&lt;br&gt;&amp;nbsp;= 3" style="rhombus;whiteSpace=wrap;html=1;" vertex="1" parent="1">
                    <mxGeometry x="-1545" y="570" width="80" height="80" as="geometry"/>
                </mxCell>
                <mxCell id="57" value="" style="edgeStyle=none;html=1;" edge="1" parent="1" source="54" target="56">
                    <mxGeometry relative="1" as="geometry">
                        <Array as="points">
                            <mxPoint x="-2410" y="860"/>
                        </Array>
                    </mxGeometry>
                </mxCell>
                <mxCell id="74" value="" style="edgeStyle=none;html=1;" edge="1" parent="1" source="54" target="73">
                    <mxGeometry relative="1" as="geometry">
                        <Array as="points">
                            <mxPoint x="-1700" y="860"/>
                        </Array>
                    </mxGeometry>
                </mxCell>
                <mxCell id="54" value="Menu Dias&lt;br&gt;= 4" style="rhombus;whiteSpace=wrap;html=1;" vertex="1" parent="1">
                    <mxGeometry x="-2040" y="820" width="80" height="80" as="geometry"/>
                </mxCell>
                <mxCell id="59" value="" style="edgeStyle=none;html=1;" edge="1" parent="1" source="56" target="58">
                    <mxGeometry relative="1" as="geometry">
                        <Array as="points">
                            <mxPoint x="-2670" y="1110"/>
                        </Array>
                    </mxGeometry>
                </mxCell>
                <mxCell id="72" style="edgeStyle=none;html=1;entryX=0.5;entryY=0;entryDx=0;entryDy=0;" edge="1" parent="1" source="56" target="68">
                    <mxGeometry relative="1" as="geometry">
                        <Array as="points">
                            <mxPoint x="-2130" y="1110"/>
                        </Array>
                    </mxGeometry>
                </mxCell>
                <mxCell id="56" value="Menu Dias&lt;br&gt;&amp;nbsp;= 5" style="rhombus;whiteSpace=wrap;html=1;" vertex="1" parent="1">
                    <mxGeometry x="-2450" y="1070" width="80" height="80" as="geometry"/>
                </mxCell>
                <mxCell id="61" value="" style="edgeStyle=none;html=1;" edge="1" parent="1" source="58" target="60">
                    <mxGeometry relative="1" as="geometry">
                        <Array as="points">
                            <mxPoint x="-2840" y="1260"/>
                        </Array>
                    </mxGeometry>
                </mxCell>
                <mxCell id="76" value="" style="edgeStyle=none;html=1;" edge="1" parent="1" source="58" target="75">
                    <mxGeometry relative="1" as="geometry">
                        <Array as="points">
                            <mxPoint x="-2520" y="1260"/>
                        </Array>
                    </mxGeometry>
                </mxCell>
                <mxCell id="58" value="Menu Dias&lt;br&gt;&amp;nbsp;= 6" style="rhombus;whiteSpace=wrap;html=1;" vertex="1" parent="1">
                    <mxGeometry x="-2710" y="1220" width="80" height="80" as="geometry"/>
                </mxCell>
                <mxCell id="78" value="" style="edgeStyle=none;html=1;entryX=0.5;entryY=0;entryDx=0;entryDy=0;" edge="1" parent="1" source="60" target="79">
                    <mxGeometry relative="1" as="geometry">
                        <mxPoint x="-2090" y="1640" as="targetPoint"/>
                        <Array as="points">
                            <mxPoint x="-2730" y="1420"/>
                        </Array>
                    </mxGeometry>
                </mxCell>
                <mxCell id="81" value="" style="edgeStyle=none;html=1;" edge="1" parent="1" source="60" target="80">
                    <mxGeometry relative="1" as="geometry">
                        <Array as="points">
                            <mxPoint x="-2970" y="1420"/>
                        </Array>
                    </mxGeometry>
                </mxCell>
                <mxCell id="60" value="Menu Dias&lt;br&gt;= 7" style="rhombus;whiteSpace=wrap;html=1;" vertex="1" parent="1">
                    <mxGeometry x="-2880" y="1380" width="80" height="80" as="geometry"/>
                </mxCell>
                <mxCell id="123" value="" style="edgeStyle=none;html=1;entryX=0.5;entryY=0;entryDx=0;entryDy=0;" edge="1" parent="1" source="62" target="128">
                    <mxGeometry relative="1" as="geometry">
                        <mxPoint x="-612" y="520" as="targetPoint"/>
                        <Array as="points">
                            <mxPoint x="-612" y="460"/>
                        </Array>
                    </mxGeometry>
                </mxCell>
                <mxCell id="134" style="edgeStyle=none;html=1;" edge="1" parent="1" source="62" target="135">
                    <mxGeometry relative="1" as="geometry">
                        <mxPoint x="-412" y="510" as="targetPoint"/>
                        <Array as="points">
                            <mxPoint x="-397" y="460"/>
                        </Array>
                    </mxGeometry>
                </mxCell>
                <mxCell id="62" value="Menu Materias&lt;br&gt;= 1" style="rhombus;whiteSpace=wrap;html=1;" vertex="1" parent="1">
                    <mxGeometry x="-564" y="420" width="80" height="80" as="geometry"/>
                </mxCell>
                <mxCell id="104" style="edgeStyle=none;html=1;" edge="1" parent="1" source="64" target="105">
                    <mxGeometry relative="1" as="geometry">
                        <mxPoint x="-840" y="760" as="targetPoint"/>
                        <Array as="points">
                            <mxPoint x="-860" y="680"/>
                        </Array>
                    </mxGeometry>
                </mxCell>
                <mxCell id="106" style="edgeStyle=none;html=1;entryX=0.5;entryY=0;entryDx=0;entryDy=0;" edge="1" parent="1" source="64" target="108">
                    <mxGeometry relative="1" as="geometry">
                        <mxPoint x="-1020" y="745" as="targetPoint"/>
                        <Array as="points">
                            <mxPoint x="-1020" y="680"/>
                        </Array>
                    </mxGeometry>
                </mxCell>
                <mxCell id="64" value="Menu Materias&lt;br&gt;= 1" style="rhombus;whiteSpace=wrap;html=1;" vertex="1" parent="1">
                    <mxGeometry x="-980" y="640" width="80" height="80" as="geometry"/>
                </mxCell>
                <mxCell id="140" value="" style="edgeStyle=none;html=1;entryX=0.5;entryY=0;entryDx=0;entryDy=0;" edge="1" parent="1" source="66" target="139">
                    <mxGeometry relative="1" as="geometry">
                        <mxPoint x="-1245" y="770" as="targetPoint"/>
                        <Array as="points">
                            <mxPoint x="-1230" y="710"/>
                        </Array>
                    </mxGeometry>
                </mxCell>
                <mxCell id="142" value="" style="edgeStyle=none;html=1;" edge="1" parent="1" source="66" target="141">
                    <mxGeometry relative="1" as="geometry">
                        <Array as="points">
                            <mxPoint x="-1425" y="710"/>
                        </Array>
                    </mxGeometry>
                </mxCell>
                <mxCell id="66" value="Menu Materias&lt;br&gt;= 1" style="rhombus;whiteSpace=wrap;html=1;" vertex="1" parent="1">
                    <mxGeometry x="-1375" y="670" width="80" height="80" as="geometry"/>
                </mxCell>
                <mxCell id="160" value="" style="edgeStyle=none;html=1;" edge="1" parent="1" source="68" target="159">
                    <mxGeometry relative="1" as="geometry">
                        <Array as="points">
                            <mxPoint x="-2040" y="1300"/>
                        </Array>
                    </mxGeometry>
                </mxCell>
                <mxCell id="162" value="" style="edgeStyle=none;html=1;" edge="1" parent="1" source="68" target="161">
                    <mxGeometry relative="1" as="geometry">
                        <Array as="points">
                            <mxPoint x="-2220" y="1300"/>
                        </Array>
                    </mxGeometry>
                </mxCell>
                <mxCell id="68" value="Menu Materias&lt;br&gt;= 1" style="rhombus;whiteSpace=wrap;html=1;" vertex="1" parent="1">
                    <mxGeometry x="-2170" y="1260" width="80" height="80" as="geometry"/>
                </mxCell>
                <mxCell id="115" style="edgeStyle=none;html=1;" edge="1" parent="1" source="73" target="116">
                    <mxGeometry relative="1" as="geometry">
                        <mxPoint x="-1595" y="1040" as="targetPoint"/>
                        <Array as="points">
                            <mxPoint x="-1625" y="1020"/>
                        </Array>
                    </mxGeometry>
                </mxCell>
                <mxCell id="118" value="" style="edgeStyle=none;html=1;" edge="1" parent="1" source="73" target="152">
                    <mxGeometry relative="1" as="geometry">
                        <mxPoint x="-1788.75" y="1110" as="targetPoint"/>
                        <Array as="points">
                            <mxPoint x="-1790" y="1020"/>
                        </Array>
                    </mxGeometry>
                </mxCell>
                <mxCell id="73" value="Menu&amp;nbsp; Materias&lt;br&gt;= 1" style="rhombus;whiteSpace=wrap;html=1;" vertex="1" parent="1">
                    <mxGeometry x="-1740" y="980" width="80" height="80" as="geometry"/>
                </mxCell>
                <mxCell id="172" style="edgeStyle=none;html=1;" edge="1" parent="1" source="75" target="173">
                    <mxGeometry relative="1" as="geometry">
                        <mxPoint x="-2440" y="1580" as="targetPoint"/>
                        <Array as="points">
                            <mxPoint x="-2450" y="1440"/>
                        </Array>
                    </mxGeometry>
                </mxCell>
                <mxCell id="175" value="" style="edgeStyle=none;html=1;" edge="1" parent="1" source="75" target="174">
                    <mxGeometry relative="1" as="geometry">
                        <Array as="points">
                            <mxPoint x="-2610" y="1440"/>
                        </Array>
                    </mxGeometry>
                </mxCell>
                <mxCell id="75" value="Menu&amp;nbsp; Materias&lt;br&gt;= 1" style="rhombus;whiteSpace=wrap;html=1;" vertex="1" parent="1">
                    <mxGeometry x="-2560" y="1400" width="80" height="80" as="geometry"/>
                </mxCell>
                <mxCell id="79" value="VOLVER" style="rounded=0;whiteSpace=wrap;html=1;" vertex="1" parent="1">
                    <mxGeometry x="-2790" y="1480" width="120" height="60" as="geometry"/>
                </mxCell>
                <mxCell id="80" value="ERROR" style="whiteSpace=wrap;html=1;" vertex="1" parent="1">
                    <mxGeometry x="-3030" y="1480" width="120" height="60" as="geometry"/>
                </mxCell>
                <mxCell id="82" value="NO" style="text;html=1;strokeColor=none;fillColor=none;align=center;verticalAlign=middle;whiteSpace=wrap;rounded=0;" vertex="1" parent="1">
                    <mxGeometry x="-2770" y="1230" width="60" height="30" as="geometry"/>
                </mxCell>
                <mxCell id="83" value="NO" style="text;html=1;strokeColor=none;fillColor=none;align=center;verticalAlign=middle;whiteSpace=wrap;rounded=0;" vertex="1" parent="1">
                    <mxGeometry x="-2960" y="1390" width="60" height="30" as="geometry"/>
                </mxCell>
                <mxCell id="84" value="SI" style="text;html=1;strokeColor=none;fillColor=none;align=center;verticalAlign=middle;whiteSpace=wrap;rounded=0;" vertex="1" parent="1">
                    <mxGeometry x="-2280" y="1080" width="60" height="30" as="geometry"/>
                </mxCell>
                <mxCell id="85" value="SI" style="text;html=1;strokeColor=none;fillColor=none;align=center;verticalAlign=middle;whiteSpace=wrap;rounded=0;" vertex="1" parent="1">
                    <mxGeometry x="-2605" y="1220" width="60" height="30" as="geometry"/>
                </mxCell>
                <mxCell id="86" value="SI" style="text;html=1;strokeColor=none;fillColor=none;align=center;verticalAlign=middle;whiteSpace=wrap;rounded=0;" vertex="1" parent="1">
                    <mxGeometry x="-2800" y="1390" width="60" height="30" as="geometry"/>
                </mxCell>
                <mxCell id="87" value="NO" style="text;html=1;strokeColor=none;fillColor=none;align=center;verticalAlign=middle;whiteSpace=wrap;rounded=0;" vertex="1" parent="1">
                    <mxGeometry x="-2590" y="1070" width="60" height="30" as="geometry"/>
                </mxCell>
                <mxCell id="89" value="NO" style="text;html=1;strokeColor=none;fillColor=none;align=center;verticalAlign=middle;whiteSpace=wrap;rounded=0;fontStyle=1" vertex="1" parent="1">
                    <mxGeometry x="-1190" y="430" width="60" height="30" as="geometry"/>
                </mxCell>
                <mxCell id="90" value="NO" style="text;html=1;strokeColor=none;fillColor=none;align=center;verticalAlign=middle;whiteSpace=wrap;rounded=0;" vertex="1" parent="1">
                    <mxGeometry x="-2100" y="830" width="60" height="30" as="geometry"/>
                </mxCell>
                <mxCell id="91" value="NO" style="text;html=1;strokeColor=none;fillColor=none;align=center;verticalAlign=middle;whiteSpace=wrap;rounded=0;" vertex="1" parent="1">
                    <mxGeometry x="-1605" y="575" width="60" height="30" as="geometry"/>
                </mxCell>
                <mxCell id="186" value="" style="edgeStyle=none;html=1;" edge="1" parent="1" source="92" target="46">
                    <mxGeometry relative="1" as="geometry"/>
                </mxCell>
                <mxCell id="92" value="NO" style="text;html=1;strokeColor=none;fillColor=none;align=center;verticalAlign=middle;whiteSpace=wrap;rounded=0;" vertex="1" parent="1">
                    <mxGeometry x="-990" y="280" width="60" height="30" as="geometry"/>
                </mxCell>
                <mxCell id="93" value="SI" style="text;html=1;strokeColor=none;fillColor=none;align=center;verticalAlign=middle;whiteSpace=wrap;rounded=0;" vertex="1" parent="1">
                    <mxGeometry x="-850" y="280" width="60" height="30" as="geometry"/>
                </mxCell>
                <mxCell id="94" value="SI" style="text;html=1;strokeColor=none;fillColor=none;align=center;verticalAlign=middle;whiteSpace=wrap;rounded=0;" vertex="1" parent="1">
                    <mxGeometry x="-1050" y="430" width="60" height="30" as="geometry"/>
                </mxCell>
                <mxCell id="95" value="SI" style="text;html=1;strokeColor=none;fillColor=none;align=center;verticalAlign=middle;whiteSpace=wrap;rounded=0;" vertex="1" parent="1">
                    <mxGeometry x="-484" y="430" width="60" height="30" as="geometry"/>
                </mxCell>
                <mxCell id="96" value="SI" style="text;html=1;strokeColor=none;fillColor=none;align=center;verticalAlign=middle;whiteSpace=wrap;rounded=0;" vertex="1" parent="1">
                    <mxGeometry x="-910" y="650" width="60" height="30" as="geometry"/>
                </mxCell>
                <mxCell id="97" value="SI" style="text;html=1;strokeColor=none;fillColor=none;align=center;verticalAlign=middle;whiteSpace=wrap;rounded=0;" vertex="1" parent="1">
                    <mxGeometry x="-1465" y="580" width="60" height="30" as="geometry"/>
                </mxCell>
                <mxCell id="98" value="SI" style="text;html=1;strokeColor=none;fillColor=none;align=center;verticalAlign=middle;whiteSpace=wrap;rounded=0;" vertex="1" parent="1">
                    <mxGeometry x="-1295" y="675" width="60" height="30" as="geometry"/>
                </mxCell>
                <mxCell id="99" value="SI" style="text;html=1;strokeColor=none;fillColor=none;align=center;verticalAlign=middle;whiteSpace=wrap;rounded=0;" vertex="1" parent="1">
                    <mxGeometry x="-1670" y="990" width="60" height="30" as="geometry"/>
                </mxCell>
                <mxCell id="100" value="SI" style="text;html=1;strokeColor=none;fillColor=none;align=center;verticalAlign=middle;whiteSpace=wrap;rounded=0;" vertex="1" parent="1">
                    <mxGeometry x="-1960" y="830" width="60" height="30" as="geometry"/>
                </mxCell>
                <mxCell id="102" value="SI" style="text;html=1;strokeColor=none;fillColor=none;align=center;verticalAlign=middle;whiteSpace=wrap;rounded=0;" vertex="1" parent="1">
                    <mxGeometry x="-2490" y="1410" width="60" height="30" as="geometry"/>
                </mxCell>
                <mxCell id="103" value="NO" style="text;html=1;strokeColor=none;fillColor=none;align=center;verticalAlign=middle;whiteSpace=wrap;rounded=0;" vertex="1" parent="1">
                    <mxGeometry x="-1030" y="650" width="60" height="30" as="geometry"/>
                </mxCell>
                <mxCell id="105" value="Ingresar Materia" style="rounded=0;whiteSpace=wrap;html=1;" vertex="1" parent="1">
                    <mxGeometry x="-920" y="745" width="120" height="60" as="geometry"/>
                </mxCell>
                <mxCell id="110" style="edgeStyle=none;html=1;" edge="1" parent="1" source="108" target="111">
                    <mxGeometry relative="1" as="geometry">
                        <mxPoint x="-930" y="900" as="targetPoint"/>
                        <Array as="points">
                            <mxPoint x="-940" y="840"/>
                        </Array>
                    </mxGeometry>
                </mxCell>
                <mxCell id="113" value="" style="edgeStyle=none;html=1;" edge="1" parent="1" source="108" target="112">
                    <mxGeometry relative="1" as="geometry">
                        <Array as="points">
                            <mxPoint x="-1100" y="840"/>
                        </Array>
                    </mxGeometry>
                </mxCell>
                <mxCell id="108" value="Menu Materias&amp;nbsp;&lt;br&gt;= 2" style="rhombus;whiteSpace=wrap;html=1;" vertex="1" parent="1">
                    <mxGeometry x="-1060" y="800" width="80" height="80" as="geometry"/>
                </mxCell>
                <mxCell id="111" value="VOLVER" style="rounded=0;whiteSpace=wrap;html=1;" vertex="1" parent="1">
                    <mxGeometry x="-1000" y="920" width="120" height="60" as="geometry"/>
                </mxCell>
                <mxCell id="112" value="ERROR" style="whiteSpace=wrap;html=1;" vertex="1" parent="1">
                    <mxGeometry x="-1160" y="920" width="120" height="60" as="geometry"/>
                </mxCell>
                <mxCell id="116" value="Ingresar Materias" style="rounded=0;whiteSpace=wrap;html=1;" vertex="1" parent="1">
                    <mxGeometry x="-1685" y="1080" width="120" height="60" as="geometry"/>
                </mxCell>
                <mxCell id="119" value="NO" style="text;html=1;strokeColor=none;fillColor=none;align=center;verticalAlign=middle;whiteSpace=wrap;rounded=0;" vertex="1" parent="1">
                    <mxGeometry x="-1790" y="990" width="60" height="30" as="geometry"/>
                </mxCell>
                <mxCell id="120" value="SI" style="text;html=1;strokeColor=none;fillColor=none;align=center;verticalAlign=middle;whiteSpace=wrap;rounded=0;" vertex="1" parent="1">
                    <mxGeometry x="-990" y="815" width="60" height="30" as="geometry"/>
                </mxCell>
                <mxCell id="121" value="NO" style="text;html=1;strokeColor=none;fillColor=none;align=center;verticalAlign=middle;whiteSpace=wrap;rounded=0;" vertex="1" parent="1">
                    <mxGeometry x="-1100" y="810" width="60" height="30" as="geometry"/>
                </mxCell>
                <mxCell id="130" value="" style="edgeStyle=none;html=1;" edge="1" parent="1" source="128" target="129">
                    <mxGeometry relative="1" as="geometry">
                        <Array as="points">
                            <mxPoint x="-532" y="550"/>
                        </Array>
                    </mxGeometry>
                </mxCell>
                <mxCell id="132" style="edgeStyle=none;html=1;" edge="1" parent="1" source="128" target="133">
                    <mxGeometry relative="1" as="geometry">
                        <mxPoint x="-732" y="880" as="targetPoint"/>
                        <Array as="points">
                            <mxPoint x="-692" y="550"/>
                        </Array>
                    </mxGeometry>
                </mxCell>
                <mxCell id="128" value="Menu Materias &lt;br&gt;= 2" style="rhombus;whiteSpace=wrap;html=1;" vertex="1" parent="1">
                    <mxGeometry x="-652" y="510" width="80" height="80" as="geometry"/>
                </mxCell>
                <mxCell id="129" value="VOLVER" style="whiteSpace=wrap;html=1;" vertex="1" parent="1">
                    <mxGeometry x="-592" y="610" width="120" height="60" as="geometry"/>
                </mxCell>
                <mxCell id="133" value="ERROR" style="rounded=0;whiteSpace=wrap;html=1;" vertex="1" parent="1">
                    <mxGeometry x="-752" y="610" width="120" height="60" as="geometry"/>
                </mxCell>
                <mxCell id="135" value="Ingresar Materia" style="rounded=0;whiteSpace=wrap;html=1;" vertex="1" parent="1">
                    <mxGeometry x="-457" y="520" width="120" height="60" as="geometry"/>
                </mxCell>
                <mxCell id="136" value="NO" style="text;html=1;strokeColor=none;fillColor=none;align=center;verticalAlign=middle;whiteSpace=wrap;rounded=0;" vertex="1" parent="1">
                    <mxGeometry x="-624" y="430" width="60" height="30" as="geometry"/>
                </mxCell>
                <mxCell id="137" value="NO" style="text;html=1;strokeColor=none;fillColor=none;align=center;verticalAlign=middle;whiteSpace=wrap;rounded=0;" vertex="1" parent="1">
                    <mxGeometry x="-702" y="520" width="60" height="30" as="geometry"/>
                </mxCell>
                <mxCell id="138" value="SI" style="text;html=1;strokeColor=none;fillColor=none;align=center;verticalAlign=middle;whiteSpace=wrap;rounded=0;" vertex="1" parent="1">
                    <mxGeometry x="-572" y="520" width="60" height="30" as="geometry"/>
                </mxCell>
                <mxCell id="139" value="Ingresar Materia" style="whiteSpace=wrap;html=1;" vertex="1" parent="1">
                    <mxGeometry x="-1290" y="780" width="120" height="60" as="geometry"/>
                </mxCell>
                <mxCell id="145" style="edgeStyle=none;html=1;entryX=0.5;entryY=0;entryDx=0;entryDy=0;" edge="1" parent="1" source="141" target="144">
                    <mxGeometry relative="1" as="geometry">
                        <Array as="points">
                            <mxPoint x="-1345" y="830"/>
                        </Array>
                    </mxGeometry>
                </mxCell>
                <mxCell id="147" value="" style="edgeStyle=none;html=1;" edge="1" parent="1" source="141" target="146">
                    <mxGeometry relative="1" as="geometry">
                        <Array as="points">
                            <mxPoint x="-1505" y="830"/>
                        </Array>
                    </mxGeometry>
                </mxCell>
                <mxCell id="141" value="Menu Materias&lt;br&gt;= 2" style="rhombus;whiteSpace=wrap;html=1;" vertex="1" parent="1">
                    <mxGeometry x="-1465" y="790" width="80" height="80" as="geometry"/>
                </mxCell>
                <mxCell id="144" value="VOLVER" style="whiteSpace=wrap;html=1;" vertex="1" parent="1">
                    <mxGeometry x="-1405" y="890" width="120" height="60" as="geometry"/>
                </mxCell>
                <mxCell id="146" value="ERROR" style="whiteSpace=wrap;html=1;" vertex="1" parent="1">
                    <mxGeometry x="-1565" y="890" width="120" height="60" as="geometry"/>
                </mxCell>
                <mxCell id="148" value="SI" style="text;html=1;strokeColor=none;fillColor=none;align=center;verticalAlign=middle;whiteSpace=wrap;rounded=0;" vertex="1" parent="1">
                    <mxGeometry x="-1385" y="800" width="60" height="30" as="geometry"/>
                </mxCell>
                <mxCell id="149" value="NO" style="text;html=1;strokeColor=none;fillColor=none;align=center;verticalAlign=middle;whiteSpace=wrap;rounded=0;" vertex="1" parent="1">
                    <mxGeometry x="-1435" y="675" width="60" height="30" as="geometry"/>
                </mxCell>
                <mxCell id="150" value="NO" style="text;html=1;strokeColor=none;fillColor=none;align=center;verticalAlign=middle;whiteSpace=wrap;rounded=0;" vertex="1" parent="1">
                    <mxGeometry x="-1525" y="800" width="60" height="30" as="geometry"/>
                </mxCell>
                <mxCell id="154" value="" style="edgeStyle=none;html=1;" edge="1" parent="1" source="152" target="153">
                    <mxGeometry relative="1" as="geometry">
                        <Array as="points">
                            <mxPoint x="-1710" y="1190"/>
                        </Array>
                    </mxGeometry>
                </mxCell>
                <mxCell id="156" value="" style="edgeStyle=none;html=1;" edge="1" parent="1" source="152" target="155">
                    <mxGeometry relative="1" as="geometry">
                        <Array as="points">
                            <mxPoint x="-1870" y="1190"/>
                        </Array>
                    </mxGeometry>
                </mxCell>
                <mxCell id="152" value="Menu Matreias&lt;br&gt;= 2" style="rhombus;whiteSpace=wrap;html=1;" vertex="1" parent="1">
                    <mxGeometry x="-1830" y="1150" width="80" height="80" as="geometry"/>
                </mxCell>
                <mxCell id="153" value="VOLVER&amp;nbsp;" style="whiteSpace=wrap;html=1;" vertex="1" parent="1">
                    <mxGeometry x="-1770" y="1250" width="120" height="60" as="geometry"/>
                </mxCell>
                <mxCell id="155" value="ERROR" style="whiteSpace=wrap;html=1;" vertex="1" parent="1">
                    <mxGeometry x="-1930" y="1250" width="120" height="60" as="geometry"/>
                </mxCell>
                <mxCell id="157" value="SI" style="text;html=1;strokeColor=none;fillColor=none;align=center;verticalAlign=middle;whiteSpace=wrap;rounded=0;" vertex="1" parent="1">
                    <mxGeometry x="-1760" y="1160" width="60" height="30" as="geometry"/>
                </mxCell>
                <mxCell id="158" value="NO" style="text;html=1;strokeColor=none;fillColor=none;align=center;verticalAlign=middle;whiteSpace=wrap;rounded=0;" vertex="1" parent="1">
                    <mxGeometry x="-1880" y="1160" width="60" height="30" as="geometry"/>
                </mxCell>
                <mxCell id="159" value="Ingresar Materia" style="whiteSpace=wrap;html=1;" vertex="1" parent="1">
                    <mxGeometry x="-2100" y="1360" width="120" height="60" as="geometry"/>
                </mxCell>
                <mxCell id="164" style="edgeStyle=none;html=1;" edge="1" parent="1" source="161" target="165">
                    <mxGeometry relative="1" as="geometry">
                        <mxPoint x="-2150" y="1440" as="targetPoint"/>
                        <Array as="points">
                            <mxPoint x="-2140" y="1400"/>
                        </Array>
                    </mxGeometry>
                </mxCell>
                <mxCell id="167" value="" style="edgeStyle=none;html=1;" edge="1" parent="1" source="161" target="166">
                    <mxGeometry relative="1" as="geometry">
                        <Array as="points">
                            <mxPoint x="-2300" y="1400"/>
                        </Array>
                    </mxGeometry>
                </mxCell>
                <mxCell id="161" value="Menu Materias&lt;br&gt;= 2" style="rhombus;whiteSpace=wrap;html=1;" vertex="1" parent="1">
                    <mxGeometry x="-2260" y="1360" width="80" height="80" as="geometry"/>
                </mxCell>
                <mxCell id="165" value="VOLVER" style="rounded=0;whiteSpace=wrap;html=1;" vertex="1" parent="1">
                    <mxGeometry x="-2200" y="1470" width="120" height="60" as="geometry"/>
                </mxCell>
                <mxCell id="166" value="ERROR" style="whiteSpace=wrap;html=1;" vertex="1" parent="1">
                    <mxGeometry x="-2360" y="1470" width="120" height="60" as="geometry"/>
                </mxCell>
                <mxCell id="168" value="SI" style="text;html=1;strokeColor=none;fillColor=none;align=center;verticalAlign=middle;whiteSpace=wrap;rounded=0;" vertex="1" parent="1">
                    <mxGeometry x="-2090" y="1270" width="60" height="30" as="geometry"/>
                </mxCell>
                <mxCell id="169" value="SI" style="text;html=1;strokeColor=none;fillColor=none;align=center;verticalAlign=middle;whiteSpace=wrap;rounded=0;" vertex="1" parent="1">
                    <mxGeometry x="-2185" y="1370" width="60" height="30" as="geometry"/>
                </mxCell>
                <mxCell id="170" value="NO" style="text;html=1;strokeColor=none;fillColor=none;align=center;verticalAlign=middle;whiteSpace=wrap;rounded=0;" vertex="1" parent="1">
                    <mxGeometry x="-2220" y="1270" width="60" height="30" as="geometry"/>
                </mxCell>
                <mxCell id="171" value="NO" style="text;html=1;strokeColor=none;fillColor=none;align=center;verticalAlign=middle;whiteSpace=wrap;rounded=0;" vertex="1" parent="1">
                    <mxGeometry x="-2310" y="1370" width="60" height="30" as="geometry"/>
                </mxCell>
                <mxCell id="173" value="Ingresa Materia" style="rounded=0;whiteSpace=wrap;html=1;" vertex="1" parent="1">
                    <mxGeometry x="-2510" y="1510" width="120" height="60" as="geometry"/>
                </mxCell>
                <mxCell id="177" value="" style="edgeStyle=none;html=1;" edge="1" parent="1" source="174" target="176">
                    <mxGeometry relative="1" as="geometry">
                        <Array as="points">
                            <mxPoint x="-2510" y="1620"/>
                        </Array>
                    </mxGeometry>
                </mxCell>
                <mxCell id="179" value="" style="edgeStyle=none;html=1;" edge="1" parent="1" source="174" target="178">
                    <mxGeometry relative="1" as="geometry">
                        <Array as="points">
                            <mxPoint x="-2700" y="1620"/>
                        </Array>
                    </mxGeometry>
                </mxCell>
                <mxCell id="174" value="Menu&amp;nbsp; Materias&lt;br&gt;= 2" style="rhombus;whiteSpace=wrap;html=1;" vertex="1" parent="1">
                    <mxGeometry x="-2650" y="1580" width="80" height="80" as="geometry"/>
                </mxCell>
                <mxCell id="176" value="VOLVER" style="whiteSpace=wrap;html=1;" vertex="1" parent="1">
                    <mxGeometry x="-2570" y="1670" width="120" height="60" as="geometry"/>
                </mxCell>
                <mxCell id="178" value="ERROR" style="whiteSpace=wrap;html=1;" vertex="1" parent="1">
                    <mxGeometry x="-2760" y="1670" width="120" height="60" as="geometry"/>
                </mxCell>
                <mxCell id="180" value="SI" style="text;html=1;strokeColor=none;fillColor=none;align=center;verticalAlign=middle;whiteSpace=wrap;rounded=0;" vertex="1" parent="1">
                    <mxGeometry x="-2560" y="1590" width="60" height="30" as="geometry"/>
                </mxCell>
                <mxCell id="181" value="NO" style="text;html=1;strokeColor=none;fillColor=none;align=center;verticalAlign=middle;whiteSpace=wrap;rounded=0;" vertex="1" parent="1">
                    <mxGeometry x="-2610" y="1410" width="60" height="30" as="geometry"/>
                </mxCell>
                <mxCell id="182" value="NO" style="text;html=1;strokeColor=none;fillColor=none;align=center;verticalAlign=middle;whiteSpace=wrap;rounded=0;" vertex="1" parent="1">
                    <mxGeometry x="-2700" y="1590" width="60" height="30" as="geometry"/>
                </mxCell>
            </root>
        </mxGraphModel>
    </diagram>
</mxfile>